<?xml version="1.0" encoding="iso-8859-1"?>
<!-- Generator: Adobe Illustrator 19.0.0, SVG Export Plug-In . SVG Version: 6.00 Build 0)  -->
<svg version="1.1" id="Capa_1" xmlns="http://www.w3.org/2000/svg" xmlns:xlink="http://www.w3.org/1999/xlink" x="0px" y="0px"
	 viewBox="0 0 512 512" style="enable-background:new 0 0 512 512;" xml:space="preserve">
<path style="fill:#CFD8DC;" d="M31.957,21.333h448.085c17.65,0,31.957,14.308,31.957,31.957v405.419
	c0,17.65-14.308,31.957-31.957,31.957H31.957C14.308,490.667,0,476.359,0,458.709V53.291C0,35.641,14.308,21.333,31.957,21.333z"/>
<path style="fill:#2196F3;" d="M244.203,304.555l-32-64c-2.177-4.46-7.17-6.797-11.989-5.611c-4.816,1.138-8.217,5.44-8.213,10.389
	V352c-0.006,4.597,2.934,8.681,7.296,10.133c1.09,0.35,2.226,0.529,3.371,0.533c3.357,0,6.519-1.581,8.533-4.267l32-42.667
	C245.626,312.498,246.014,308.17,244.203,304.555z"/>
<g>
	<circle style="fill:#607D8B;" cx="74.667" cy="96" r="32"/>
	<circle style="fill:#607D8B;" cx="437.333" cy="96" r="32"/>
	<circle style="fill:#607D8B;" cx="437.333" cy="416" r="32"/>
	<circle style="fill:#607D8B;" cx="74.667" cy="416" r="32"/>
</g>
<path style="fill:#1E88E5;" d="M341.333,309.333c0.046,2.315-0.707,4.575-2.133,6.4l-32,42.667
	c-1.965,2.744-5.159,4.341-8.533,4.267h-96c-5.891,0-10.667-4.776-10.667-10.667c0-2.308,0.749-4.554,2.133-6.4l27.093-36.267
	L341.333,309.333z"/>
<path style="fill:#64B5F6;" d="M221.227,309.333l0.853-1.067l-29.013-58.24c-1.575-3.271-1.415-7.112,0.427-10.24
	c2.005-3.138,5.45-5.061,9.173-5.12h106.667c4.577-0.061,8.652,2.887,10.027,7.253l21.333,64c0.418,1.09,0.635,2.246,0.64,3.413
	H221.227z"/>
<path style="fill:#2196F3;" d="M309.333,128H202.667c-5.891,0-10.667,4.776-10.667,10.667v106.667h128V138.667
	C320,132.776,315.224,128,309.333,128z"/>
<path d="M298.667,362.667h-96c-5.891,0-10.667-4.776-10.667-10.667V138.667c0-5.891,4.776-10.667,10.667-10.667h106.667
	c5.891,0,10.667,4.776,10.667,10.667v104.939l20.779,62.357c1.108,3.319,0.518,6.97-1.579,9.771l-32,42.667
	C305.186,361.086,302.024,362.667,298.667,362.667z M213.333,341.333h80l25.451-33.941l-19.563-58.688
	c-0.365-1.086-0.552-2.225-0.555-3.371v-96h-85.333V341.333z"/>
<path d="M202.667,362.667c-5.891,0-10.667-4.776-10.667-10.667c0-2.308,0.749-4.554,2.133-6.4l28.032-37.397l-29.035-58.091
	c-2.639-5.267-0.509-11.676,4.758-14.315c1.483-0.743,3.119-1.13,4.778-1.13h106.667c5.891,0,10.667,4.776,10.667,10.667
	c0,5.891-4.776,10.667-10.667,10.667h-89.408l24.277,48.555c1.803,3.609,1.415,7.927-1.003,11.157l-32,42.667
	C209.19,361.073,206.028,362.662,202.667,362.667z"/>
<path d="M330.667,320h-96c-5.891,0-10.667-4.776-10.667-10.667s4.776-10.667,10.667-10.667h96c5.891,0,10.667,4.776,10.667,10.667
	S336.558,320,330.667,320z"/>
<path d="M480,490.667H32c-17.673,0-32-14.327-32-32V53.333c0-17.673,14.327-32,32-32h448c17.673,0,32,14.327,32,32v405.333
	C512,476.34,497.673,490.667,480,490.667z M32,42.667c-5.891,0-10.667,4.776-10.667,10.667v405.333
	c0,5.891,4.776,10.667,10.667,10.667h448c5.891,0,10.667-4.776,10.667-10.667V53.333c0-5.891-4.776-10.667-10.667-10.667H32z"/>
<path d="M74.667,128c-17.673,0-32-14.327-32-32s14.327-32,32-32s32,14.327,32,32S92.34,128,74.667,128z M74.667,85.333
	C68.776,85.333,64,90.109,64,96c0,5.891,4.776,10.667,10.667,10.667S85.333,101.891,85.333,96
	C85.333,90.109,80.558,85.333,74.667,85.333z"/>
<path d="M437.333,128c-17.673,0-32-14.327-32-32s14.327-32,32-32s32,14.327,32,32S455.006,128,437.333,128z M437.333,85.333
	c-5.891,0-10.667,4.776-10.667,10.667c0,5.891,4.776,10.667,10.667,10.667S448,101.891,448,96
	C448,90.109,443.224,85.333,437.333,85.333z"/>
<path d="M437.333,448c-17.673,0-32-14.327-32-32s14.327-32,32-32s32,14.327,32,32S455.006,448,437.333,448z M437.333,405.333
	c-5.891,0-10.667,4.776-10.667,10.667c0,5.891,4.776,10.667,10.667,10.667S448,421.891,448,416
	C448,410.109,443.224,405.333,437.333,405.333z"/>
<path d="M74.667,448c-17.673,0-32-14.327-32-32s14.327-32,32-32s32,14.327,32,32S92.34,448,74.667,448z M74.667,405.333
	C68.776,405.333,64,410.109,64,416c0,5.891,4.776,10.667,10.667,10.667S85.333,421.891,85.333,416
	C85.333,410.109,80.558,405.333,74.667,405.333z"/>
<g>
</g>
<g>
</g>
<g>
</g>
<g>
</g>
<g>
</g>
<g>
</g>
<g>
</g>
<g>
</g>
<g>
</g>
<g>
</g>
<g>
</g>
<g>
</g>
<g>
</g>
<g>
</g>
<g>
</g>
</svg>
